<svg id="visual" viewBox="0 0 900 600" width="900" height="600" xmlns="http://www.w3.org/2000/svg" xmlns:xlink="http://www.w3.org/1999/xlink" version="1.1"><path d="M0 511L6.8 515.2C13.7 519.3 27.3 527.7 41 530.5C54.7 533.3 68.3 530.7 82 527.2C95.7 523.7 109.3 519.3 123 525.7C136.7 532 150.3 549 164 553.2C177.7 557.3 191.3 548.7 204.8 544.2C218.3 539.7 231.7 539.3 245.2 542.2C258.7 545 272.3 551 286 551C299.7 551 313.3 545 327 541.5C340.7 538 354.3 537 368 539.5C381.7 542 395.3 548 409 548.2C422.7 548.3 436.3 542.7 450 544C463.7 545.3 477.3 553.7 491 550.3C504.7 547 518.3 532 532 527.3C545.7 522.7 559.3 528.3 573 535.2C586.7 542 600.3 550 614 553C627.7 556 641.3 554 654.8 551.5C668.3 549 681.7 546 695.2 540.5C708.7 535 722.3 527 736 523.7C749.7 520.3 763.3 521.7 777 521.2C790.7 520.7 804.3 518.3 818 521.3C831.7 524.3 845.3 532.7 859 537.5C872.7 542.3 886.3 543.7 893.2 544.3L900 545L900 601L893.2 601C886.3 601 872.7 601 859 601C845.3 601 831.7 601 818 601C804.3 601 790.7 601 777 601C763.3 601 749.7 601 736 601C722.3 601 708.7 601 695.2 601C681.7 601 668.3 601 654.8 601C641.3 601 627.7 601 614 601C600.3 601 586.7 601 573 601C559.3 601 545.7 601 532 601C518.3 601 504.7 601 491 601C477.3 601 463.7 601 450 601C436.3 601 422.7 601 409 601C395.3 601 381.7 601 368 601C354.3 601 340.7 601 327 601C313.3 601 299.7 601 286 601C272.3 601 258.7 601 245.2 601C231.7 601 218.3 601 204.8 601C191.3 601 177.7 601 164 601C150.3 601 136.7 601 123 601C109.3 601 95.7 601 82 601C68.3 601 54.7 601 41 601C27.3 601 13.7 601 6.8 601L0 601Z" fill="#023047" stroke-linecap="round" stroke-linejoin="miter"></path></svg>